<?xml version="1.0" standalone="no"?>
<!DOCTYPE svg PUBLIC "-//W3C//DTD SVG 20010904//EN"
 "http://www.w3.org/TR/2001/REC-SVG-20010904/DTD/svg10.dtd">
<svg version="1.0" xmlns="http://www.w3.org/2000/svg"
 width="921.000000pt" height="921.000000pt" viewBox="0 0 921.000000 921.000000"
 preserveAspectRatio="xMidYMid meet">
<metadata>
Created by potrace 1.11, written by Peter Selinger 2001-2013
</metadata>
<g transform="translate(0.000000,921.000000) scale(0.100000,-0.100000)"
fill="#000000" stroke="none">
<path d="M4388 9205 c-2 -2 -57 -6 -123 -10 -66 -3 -122 -8 -125 -10 -3 -1
-39 -6 -79 -9 -41 -4 -77 -9 -80 -10 -4 -2 -35 -7 -70 -10 -36 -4 -67 -9 -71
-11 -3 -2 -24 -6 -46 -9 -46 -6 -89 -14 -124 -22 -14 -3 -36 -8 -49 -10 -13
-3 -85 -21 -160 -40 -75 -20 -143 -37 -151 -39 -9 -2 -90 -28 -180 -58 -511
-170 -1003 -443 -1445 -800 -182 -147 -446 -408 -604 -596 -190 -228 -340
-443 -480 -690 -68 -119 -211 -402 -211 -416 0 -3 -11 -28 -24 -57 -28 -62
-86 -206 -91 -228 -2 -8 -22 -68 -44 -132 -60 -172 -146 -513 -166 -658 -1
-14 -6 -41 -9 -60 -13 -77 -16 -97 -22 -155 -3 -33 -7 -71 -10 -85 -19 -121
-26 -704 -10 -865 12 -122 17 -168 22 -196 2 -15 6 -47 9 -70 7 -60 36 -232
40 -239 2 -3 6 -25 10 -50 4 -25 8 -47 10 -51 2 -3 7 -19 9 -35 26 -141 112
-425 193 -634 113 -296 265 -591 441 -860 72 -109 249 -352 288 -395 11 -11
41 -47 69 -80 193 -233 518 -533 790 -731 614 -445 1321 -732 2060 -833 200
-27 231 -30 365 -38 218 -12 603 -5 720 12 14 2 54 7 90 10 76 8 104 11 145
18 17 3 73 13 125 21 52 9 145 28 205 42 61 14 120 27 132 30 52 10 269 77
393 120 473 164 981 447 1365 762 44 36 82 68 85 71 3 4 34 31 70 61 96 82
323 311 426 430 430 499 752 1083 931 1685 72 245 137 549 158 745 12 108 16
146 31 340 7 85 7 390 0 505 -7 111 -23 284 -31 326 -2 9 -6 40 -10 70 -3 30
-10 77 -15 104 -5 28 -11 61 -14 75 -14 84 -22 121 -57 265 -99 401 -261 815
-445 1137 -20 35 -42 72 -48 83 -62 115 -245 383 -361 531 -223 282 -604 655
-849 829 -16 11 -40 29 -55 41 -76 61 -330 222 -521 330 -35 19 -330 164 -335
164 -2 0 -28 11 -57 24 -150 68 -480 179 -658 222 -86 21 -232 53 -260 58 -86
16 -280 45 -330 51 -30 3 -71 8 -90 10 -89 12 -193 17 -422 19 -136 2 -249 2
-250 1z m552 -149 c25 -3 72 -8 105 -11 101 -10 186 -21 240 -31 11 -2 40 -7
65 -10 50 -6 297 -58 375 -79 481 -127 945 -336 1360 -614 732 -491 1319
-1211 1647 -2021 135 -334 239 -712 282 -1030 37 -271 46 -399 46 -665 1 -157
-1 -201 -15 -370 -7 -89 -22 -225 -30 -265 -2 -14 -6 -41 -9 -60 -7 -56 -46
-248 -67 -335 -11 -44 -22 -87 -24 -97 -2 -9 -20 -71 -40 -139 -264 -890 -820
-1695 -1565 -2266 -101 -77 -354 -253 -365 -253 -2 0 -28 -15 -57 -33 -134
-85 -399 -218 -605 -303 -234 -97 -627 -214 -843 -250 -14 -3 -47 -9 -75 -14
-54 -10 -181 -28 -260 -36 -27 -3 -63 -7 -80 -9 -177 -22 -723 -22 -844 0 -9
1 -47 6 -86 9 -38 4 -81 9 -95 11 -14 2 -54 9 -90 14 -36 6 -83 13 -105 16
-22 4 -48 8 -57 11 -17 5 -44 11 -91 19 -61 12 -336 85 -412 110 -102 34 -244
84 -270 95 -11 5 -69 30 -130 56 -581 247 -1129 639 -1555 1111 -330 365 -629
837 -806 1270 -19 49 -41 102 -49 118 -30 67 -119 350 -156 495 -44 172 -42
162 -69 315 -22 128 -25 146 -45 305 -28 224 -28 723 0 965 4 28 8 64 9 80 2
17 7 50 10 75 4 25 9 56 11 70 9 59 17 99 31 170 9 41 18 84 19 95 23 154 180
631 286 862 307 673 759 1243 1353 1707 215 168 534 364 795 488 309 148 782
307 1026 345 17 2 46 8 65 13 19 5 71 14 115 20 44 7 87 13 95 15 17 3 115 14
180 21 25 2 92 7 150 10 58 3 106 7 108 9 5 5 472 -4 522 -9z"/>
<path d="M4915 7555 c-96 -21 -113 -31 -205 -121 -215 -211 -419 -312 -690
-344 -133 -16 -147 -17 -190 -8 -19 4 -62 10 -95 14 -33 3 -98 12 -145 19 -47
8 -105 17 -130 20 -25 3 -56 8 -70 10 -14 3 -38 7 -55 10 -16 3 -41 7 -55 10
-73 15 -383 22 -480 11 -36 -3 -97 -8 -136 -10 -38 -2 -90 -10 -115 -16 -24
-7 -55 -14 -68 -17 -14 -2 -28 -6 -31 -8 -4 -2 -57 -18 -117 -34 -138 -38
-206 -68 -308 -135 -44 -29 -105 -69 -135 -89 -83 -55 -187 -153 -227 -215
-57 -90 -141 -263 -147 -307 -27 -171 -33 -260 -23 -340 28 -219 160 -432 344
-556 62 -42 233 -126 233 -115 0 2 20 -2 45 -9 70 -22 149 -29 290 -29 353 0
489 38 685 194 157 125 180 215 85 329 -34 40 -81 61 -136 62 -35 1 -61 -9
-124 -45 -110 -63 -210 -104 -293 -118 -264 -45 -539 159 -533 395 2 65 29
163 65 234 37 74 100 136 215 212 91 59 99 63 241 107 l125 38 228 2 c125 1
244 -2 265 -6 20 -5 64 -11 97 -14 78 -7 164 -17 193 -21 170 -27 442 -22 610
10 115 23 138 32 292 125 81 49 130 74 135 68 3 -3 -7 -45 -21 -94 -53 -179
-65 -221 -85 -309 -11 -49 -22 -99 -24 -110 -3 -11 -41 -146 -85 -300 -45
-154 -83 -289 -85 -300 -17 -72 -57 -210 -78 -265 -14 -36 -28 -81 -31 -100
-19 -124 -69 -310 -105 -392 -11 -26 -39 -124 -62 -218 -56 -229 -48 -224
-319 -235 -63 -2 -131 -7 -150 -9 -19 -3 -57 -8 -85 -11 -27 -3 -75 -12 -105
-20 -30 -7 -73 -16 -95 -20 -43 -7 -274 -95 -393 -151 -41 -19 -79 -34 -86
-34 -6 0 -20 -6 -31 -14 -11 -7 -42 -26 -70 -41 -27 -15 -59 -35 -70 -45 -11
-9 -78 -57 -149 -106 -92 -63 -144 -107 -182 -154 -30 -36 -71 -85 -93 -110
-122 -144 -210 -296 -247 -430 -2 -8 -10 -37 -19 -65 -35 -118 -46 -162 -50
-202 -2 -22 -7 -67 -10 -98 -29 -226 21 -396 173 -589 87 -110 208 -184 392
-238 91 -27 93 -27 210 -34 227 -13 372 -11 450 7 233 54 327 89 429 158 67
46 195 155 254 216 82 86 260 376 316 515 8 19 41 91 74 160 69 144 68 141 97
240 12 41 39 127 60 190 21 63 45 147 54 185 46 190 56 211 99 221 54 12 137
5 262 -21 160 -34 301 -62 350 -70 42 -6 65 -10 155 -25 30 -5 75 -12 100 -15
119 -16 189 -32 217 -51 27 -17 50 -61 47 -89 -6 -65 -15 -116 -27 -160 -8
-27 -26 -95 -41 -150 -15 -55 -44 -149 -63 -210 -20 -60 -38 -126 -40 -145 -3
-19 -38 -136 -78 -260 -40 -124 -77 -236 -80 -250 -4 -14 -11 -29 -15 -35 -15
-20 -51 -138 -56 -185 -7 -63 13 -101 65 -128 193 -101 473 -69 555 63 32 51
127 326 181 525 19 69 41 148 49 175 8 28 19 75 25 105 15 80 16 84 53 215 46
161 94 336 113 415 19 80 54 120 111 127 21 2 100 19 174 38 74 18 151 36 170
39 163 27 608 248 744 371 12 11 58 49 102 85 108 88 139 123 174 195 31 62
33 148 6 189 -25 39 -74 58 -119 45 -20 -5 -101 -58 -179 -118 -183 -137 -327
-233 -409 -270 -100 -45 -345 -127 -437 -146 -86 -17 -148 -18 -169 -2 -18 13
-16 61 7 153 10 43 35 149 55 234 20 85 43 178 50 205 8 28 22 82 30 120 9 39
32 124 50 190 19 66 37 136 40 155 3 19 13 62 21 95 9 33 27 106 40 162 13 56
41 157 63 225 40 125 110 358 138 458 25 92 50 161 88 250 20 47 56 141 79
210 24 69 58 159 76 200 42 97 51 136 39 169 -26 66 -91 105 -228 133 -172 36
-236 28 -319 -40 -47 -39 -117 -148 -133 -208 -25 -94 -103 -323 -124 -359
-32 -59 -61 -140 -84 -241 -12 -49 -37 -129 -55 -179 -38 -100 -53 -148 -60
-186 -2 -14 -11 -47 -20 -73 -9 -26 -16 -60 -16 -76 0 -16 -13 -71 -30 -122
-35 -112 -92 -330 -127 -488 -14 -63 -38 -169 -55 -235 -16 -66 -31 -132 -34
-147 -11 -62 -53 -265 -58 -283 -3 -11 -14 -58 -26 -105 -33 -137 -49 -178
-81 -205 -17 -14 -43 -25 -59 -25 -24 0 -215 31 -340 55 -82 16 -67 13 -195
30 -169 23 -358 61 -422 86 -99 40 -114 120 -59 314 61 212 75 265 95 345 12
47 23 92 26 100 6 20 26 100 31 125 2 11 6 34 9 50 8 39 69 246 105 355 15 47
30 99 33 115 9 53 37 167 67 270 58 204 129 463 150 545 27 110 29 117 34 138
2 9 22 73 44 142 109 339 121 383 114 430 -5 37 -55 91 -110 119 -68 34 -216
47 -307 26z m-1164 -3484 c24 -26 25 -32 18 -82 -18 -119 -17 -117 -126 -454
-14 -44 -38 -107 -53 -140 -15 -33 -35 -85 -45 -115 -10 -30 -29 -73 -42 -95
-13 -22 -41 -74 -62 -115 -73 -141 -236 -322 -333 -370 -193 -96 -360 -93
-519 8 -96 61 -138 158 -140 323 -1 135 42 261 154 449 82 138 130 191 261
293 166 130 193 149 256 181 79 40 296 112 365 120 28 3 75 12 105 19 80 19
130 12 161 -22z"/>
</g>
</svg>
